Coordinates
version=1
nRows=16
nColumns=40
inDegrees=yes

Units are S.I. units (second, meters, Newtons, ...)
Angles are in degrees.

endheader
time	pelvis_tilt	pelvis_list	pelvis_rotation	pelvis_tx	pelvis_ty	pelvis_tz	hip_flexion_r	hip_adduction_r	hip_rotation_r	knee_angle_r	knee_angle_r_beta	ankle_angle_r	subtalar_angle_r	mtp_angle_r	hip_flexion_l	hip_adduction_l	hip_rotation_l	knee_angle_l	knee_angle_l_beta	ankle_angle_l	subtalar_angle_l	mtp_angle_l	lumbar_extension	lumbar_bending	lumbar_rotation	arm_flex_r	arm_add_r	arm_rot_r	elbow_flex_r	pro_sup_r	wrist_flex_r	wrist_dev_r	arm_flex_l	arm_add_l	arm_rot_l	elbow_flex_l	pro_sup_l	wrist_flex_l	wrist_dev_l
     25.85000000	     -0.48835724	     -2.40292318	     23.08315332	      0.83973214	      0.92102014	      0.50232243	      6.78977960	      4.66009079	    -17.06356291	     23.13956737	     23.13956737	     19.86760364	     -7.36612904	     -0.55734508	     26.94868740	     -9.82775642	      4.63077298	     21.63370251	     21.63370251	      1.08981769	      1.00818868	      6.89488695	     -9.14115035	      3.48073276	      6.84524932	     64.99297215	    -25.61241014	      0.04355428	     75.20049473	     44.80028870	      0.00000000	      0.00000000	    -30.59681290	    -10.93508025	     21.09659537	     34.03266867	     43.88116602	      0.00000000	      0.00000000
     25.87485714	     -0.42583289	     -2.48721722	     23.50225883	      0.83711325	      0.92053569	      0.49887708	      6.56585336	      4.61213625	    -17.33837311	     23.24863437	     23.24863437	     20.07778244	     -7.50962746	     -0.57878165	     26.64013179	     -9.62581169	      4.74683962	     21.41664518	     21.41664518	      1.30760201	      1.65868092	      6.34026578	     -9.18424037	      3.47869529	      6.72162781	     65.71377544	    -25.28776298	      0.75173591	     75.91995410	     44.76660778	      0.00000000	      0.00000000	    -30.04661184	    -10.78348537	     21.46137592	     33.91152403	     43.87558789	      0.00000000	      0.00000000
     25.89971429	     -0.45163704	     -2.67203536	     23.87269721	      0.83456721	      0.91994897	      0.49530864	      6.44087177	      4.63260710	    -17.58998974	     23.30175178	     23.30175178	     20.22173021	     -7.66418060	     -0.59190257	     26.44180993	     -9.45518797	      5.06882085	     21.27026123	     21.27026123	      1.71691650	      1.77384511	      6.06903292	     -9.05848192	      3.50707298	      6.82381184	     66.25117983	    -25.18141941	      0.98078135	     76.11622143	     44.75900065	      0.00000000	      0.00000000	    -29.43440720	    -10.84506223	     21.54063559	     33.98805792	     43.88581645	      0.00000000	      0.00000000
     25.92457143	     -0.54971443	     -2.83854404	     24.10550402	      0.83227996	      0.91940725	      0.49155538	      6.31712401	      4.60979573	    -17.72422040	     23.27923892	     23.27923892	     20.38266775	     -7.78163004	     -0.61679560	     26.26852596	     -9.30349145	      5.15248692	     21.20793700	     21.20793700	      2.28069511	      1.72953269	      5.85461093	     -8.83070551	      3.41123873	      6.89319935	     66.42169860	    -25.06933462	      1.05280458	     76.18050531	     44.75581064	      0.00000000	      0.00000000	    -29.10678917	    -10.84557130	     21.53956526	     34.07260810	     43.89221421	      0.00000000	      0.00000000
     25.94942857	     -0.46326672	     -2.97734912	     24.40540505	      0.82970543	      0.91919789	      0.48740230	      5.93647197	      4.61957354	    -17.92099245	     23.12845925	     23.12845925	     20.49951084	     -7.75082484	     -0.57500463	     25.97946235	     -9.09733217	      5.64157684	     21.25645949	     21.25645949	      2.78817571	      1.27723032	      5.49450849	     -9.01159940	      3.57610197	      7.00120681	     67.26184712	    -24.97706519	      1.71170029	     76.29166691	     44.74218660	      0.00000000	      0.00000000	    -28.21231395	    -10.99823284	     21.76762169	     34.08756548	     43.89799429	      0.00000000	      0.00000000
     25.97428571	     -0.54930081	     -3.09523490	     24.57318225	      0.82734635	      0.91891925	      0.48300193	      5.67372689	      4.51448885	    -18.07437916	     22.95185185	     22.95185185	     20.65894374	     -7.61113637	     -0.51953394	     25.79441461	     -8.81965761	      6.06992673	     21.28730346	     21.28730346	      3.15736901	      0.52757573	      4.86918296	     -8.91496611	      3.58720394	      7.04896192	     67.87009344	    -25.20575102	      3.31695079	     75.79900060	     44.74524813	      0.00000000	      0.00000000	    -27.53235872	    -11.23459524	     22.85587691	     33.85156240	     43.86967912	      0.00000000	      0.00000000
     25.99914286	     -0.67395976	     -3.18746773	     24.63627488	      0.82513257	      0.91871347	      0.47838188	      5.38632122	      4.38818811	    -18.05877713	     22.69005966	     22.69005966	     20.76184849	     -7.58804160	     -0.49090206	     25.74794424	     -8.58767142	      6.16649193	     21.57884012	     21.57884012	      3.79383961	      0.18783014	      4.58885440	     -8.82392200	      3.53227771	      7.17647726	     68.10878615	    -25.02474630	      3.38998580	     75.80340023	     44.74641059	      0.00000000	      0.00000000	    -27.04535379	    -11.43665229	     22.84618629	     33.97441101	     43.88412228	      0.00000000	      0.00000000
     26.02400000	     -0.86264478	     -3.32798998	     24.63854197	      0.82292514	      0.91852537	      0.47338661	      5.23098894	      4.22833862	    -18.03426220	     22.54834685	     22.54834685	     20.84648169	     -7.59549673	     -0.48342790	     25.66921875	     -8.39209858	      6.14347566	     21.65856922	     21.65856922	      4.42186361	     -0.03709772	      4.35125696	     -8.67915368	      3.53599757	      7.20100327	     68.21482802	    -24.96998691	      3.41289779	     75.80850595	     44.74647853	      0.00000000	      0.00000000	    -26.85461901	    -11.50818715	     22.83177896	     34.02318938	     43.88969392	      0.00000000	      0.00000000
     26.04885714	     -0.80888736	     -3.48376892	     24.58942023	      0.82088537	      0.91860487	      0.46801289	      4.44134098	      4.28573472	    -18.01322627	     21.65570571	     21.65570571	     20.85453389	     -7.12742959	     -0.39041288	     25.84203710	     -8.14068475	      6.80611239	     22.70538652	     22.70538652	      5.10944129	     -1.35383545	      4.16427775	     -8.80303388	      3.71669585	      7.56319171	     68.82634334	    -24.95473659	      3.66047807	     75.31805107	     44.76504065	      0.00000000	      0.00000000	    -26.30438164	    -11.81535597	     22.91255761	     34.24421682	     43.90687416	      0.00000000	      0.00000000
     26.07371429	     -0.97362205	     -3.50139709	     24.43516991	      0.81886571	      0.91873464	      0.46215527	      3.94841696	      3.98011958	    -18.03030806	     21.09218602	     21.09218602	     20.85295390	     -6.59714914	     -0.55135256	     25.84446086	     -7.67506042	      7.27287519	     23.23131806	     23.23131806	      5.75262698	     -2.58516486	      4.56267525	     -8.71434791	      3.73061789	      7.53889392	     69.47031679	    -24.79043295	      4.49434528	     74.13016007	     44.80681203	      0.00000000	      0.00000000	    -26.10484029	    -12.13004123	     23.42988495	     34.63642259	     43.92051825	      0.00000000	      0.00000000
     26.09857143	     -1.18422816	     -3.47865994	     24.12814167	      0.81704138	      0.91884476	      0.45603838	      3.54762925	      3.60809805	    -17.77917310	     20.67036146	     20.67036146	     20.87737739	     -6.38578302	     -0.49394552	     25.90998470	     -7.29023414	      7.16032706	     23.87226214	     23.87226214	      6.31252562	     -3.14751087	      4.30107189	     -8.61315694	      3.67605495	      7.73436478	     69.56051830	    -24.63255375	      4.56929006	     74.05395482	     44.80964138	      0.00000000	      0.00000000	    -25.88713723	    -12.27381866	     23.41497637	     34.71570675	     43.93180084	      0.00000000	      0.00000000
     26.12342857	     -1.31335203	     -3.54331519	     23.77741167	      0.81531630	      0.91904076	      0.44951241	      3.02277475	      3.33251776	    -17.61178191	     20.11605789	     20.11605789	     20.82937374	     -5.96568143	     -0.42375948	     25.99089988	     -6.96533150	      7.17691274	     24.65114250	     24.65114250	      6.86836983	     -4.03348613	      4.12759555	     -8.61793063	      3.81035127	      7.93333282	     69.69463518	    -24.59689468	      4.63039648	     73.79926057	     44.82019109	      0.00000000	      0.00000000	    -25.62656990	    -12.43766847	     23.38854018	     34.86199070	     43.94822938	      0.00000000	      0.00000000
     26.14828571	     -1.40553394	     -3.61549430	     23.41701727	      0.81383583	      0.91944600	      0.44248107	      2.41469990	      3.01255761	    -17.62088941	     19.51523581	     19.51523581	     20.72685200	     -5.21586672	     -0.40592539	     25.88006813	     -6.57140469	      7.51628390	     25.22802829	     25.22802829	      7.47088120	     -5.17799798	      4.22012501	     -8.53087117	      4.03759862	      8.17506128	     69.89346134	    -24.67477027	      4.75083642	     73.18980900	     44.84479792	      0.00000000	      0.00000000	    -25.34976638	    -12.58490404	     23.36341029	     35.17476068	     43.97665167	      0.00000000	      0.00000000
     26.17314286	     -1.63326389	     -3.53061173	     22.84428499	      0.81246956	      0.91987063	      0.43526683	      2.06790154	      2.42010706	    -17.28853037	     19.27324623	     19.27324623	     20.62313604	     -4.82956203	     -0.36530043	     25.74669435	     -6.13078526	      7.20164537	     25.70492490	     25.70492490	      7.90345769	     -5.82177372	      4.11549277	     -8.37139636	      4.06125851	      8.32169141	     69.79507172	    -24.48069753	      4.88140542	     72.99992023	     44.84851373	      0.00000000	      0.00000000	    -24.97563914	    -12.66397815	     23.31653042	     35.35734943	     43.99403708	      0.00000000	      0.00000000
     26.19800000	     -1.76955263	     -3.44651859	     22.31883665	      0.81118563	      0.92054164	      0.42742094	      1.62570545	      1.71324106	    -17.50537410	     19.10234489	     19.10234489	     20.49525796	     -3.62114004	     -0.49098356	     25.38921852	     -5.54832938	      7.33557850	     25.98607113	     25.98607113	      8.42604335	     -7.19758549	      4.54764520	     -8.32926204	      4.21488777	      8.48980212	     69.84453941	    -24.62001228	      5.07279905	     72.01523635	     44.88701267	      0.00000000	      0.00000000	    -24.56140001	    -12.83565388	     23.17140429	     35.89451420	     44.05330998	      0.00000000	      0.00000000
     26.22285714	     -1.93777044	     -3.38993508	     21.65936113	      0.81013991	      0.92116200	      0.41956363	      1.37330030	      1.06455555	    -17.12770773	     19.13699952	     19.13699952	     20.26123381	     -3.29173834	     -0.44833255	     25.08259493	     -5.16776522	      6.86446107	     26.30084732	     26.30084732	      8.93208502	     -7.71774536	      4.41525730	     -8.19809613	      4.41302909	      8.48213287	     69.48907812	    -24.39138452	      5.21618474	     71.83557641	     44.88840784	      0.00000000	      0.00000000	    -23.97503653	    -12.83414881	     23.10152566	     36.12921929	     44.07588941	      0.00000000	      0.00000000
